# xmcd
#
# Track frame offsets:
#	150
#	9925
#	24850
#	41230
#	60147
#	74625
#	93357
#	109072
#	122010
#	143057
#	156922
#	169065
#	181410
#	195372
#	206877
#	225425
#	241830
#	258100
#	270817
#	284522
#	302502
#
# Disc length: 4270 seconds
#
# Revision: 1
# Processed by: cddbd v1.5.2PL0 Copyright (c) Steve Scherf et al.
# Submitted via: audiograbber 1.83.01
#
DISCID=0f10ac15
DTITLE=Alan Rhody - RhodyInBlack&White
DYEAR=2005
DGENRE=Country
TTITLE0=My Kentucky
TTITLE1=Ain't No More
TTITLE2=Tuesday Night Local
TTITLE3=The Wind in Her Hair
TTITLE4=Somebody to Care
TTITLE5=White Roofs, Grey Streets
TTITLE6=That's Who I'd Be
TTITLE7=Ambitious Life
TTITLE8=The Mother Road
TTITLE9=River Town
TTITLE10=Some Kind of Crime
TTITLE11=Love Busted
TTITLE12=Moody Days
TTITLE13=Two-way Street
TTITLE14=Stop the Rain
TTITLE15=Grandpa's Boots
TTITLE16=I'll Be True to You
TTITLE17=Wild-Eyed Dream
TTITLE18=On a Texas Saturday Night
TTITLE19=Long-shot Fool
TTITLE20=Trainwreck of Emotion
EXTD=
EXTT0=
EXTT1=
EXTT2=
EXTT3=
EXTT4=
EXTT5=
EXTT6=
EXTT7=
EXTT8=
EXTT9=
EXTT10=
EXTT11=
EXTT12=
EXTT13=
EXTT14=
EXTT15=
EXTT16=
EXTT17=
EXTT18=
EXTT19=
EXTT20=
PLAYORDER=
